<svg version="1.1" id="Layer_1" xmlns="http://www.w3.org/2000/svg" xmlns:xlink="http://www.w3.org/1999/xlink" x="0px" y="0px"
	 width="100%" viewBox="0 0 1200 1200" enable-background="new 0 0 1200 1200" xml:space="preserve">
<path fill="#FEC20E" opacity="1.000000" stroke="none" 
	d="
M650.000000,1201.000000 
	C617.645752,1201.000000 585.291565,1201.000000 552.803284,1200.648926 
	C548.228027,1199.536255 543.801086,1198.676025 539.343018,1198.030762 
	C522.896790,1195.650269 506.265747,1194.179810 490.029816,1190.802002 
	C467.555786,1186.126709 445.094513,1180.961548 423.153107,1174.280884 
	C402.958832,1168.132324 383.074921,1160.572754 363.756073,1152.045044 
	C342.150818,1142.507812 320.672516,1132.305542 300.356995,1120.326904 
	C278.727448,1107.573364 257.983917,1093.123291 237.860031,1078.068604 
	C220.180298,1064.842529 203.084244,1050.593140 187.206314,1035.266724 
	C169.779053,1018.444641 153.607162,1000.249023 137.715775,981.934021 
	C126.742973,969.287598 116.498451,955.877625 107.148972,941.987366 
	C95.120094,924.116272 83.566704,905.834656 73.161842,886.982971 
	C59.143990,861.585205 46.835133,835.231812 37.143383,807.863586 
	C25.965773,776.299377 15.870929,744.341492 10.991862,711.049133 
	C8.130405,691.523865 5.669112,671.940063 2.925605,652.397034 
	C2.803198,651.525085 1.665046,650.795715 1.000008,650.000000 
	C1.000000,617.645752 1.000000,585.291565 1.344898,552.810730 
	C2.123341,551.839111 2.847322,551.026001 2.944326,550.143982 
	C3.696537,543.304443 4.136882,536.426575 5.036086,529.608276 
	C6.911468,515.388000 8.004025,500.963654 11.236316,487.045380 
	C17.039963,462.054749 23.664745,437.221313 30.965849,412.624786 
	C35.221741,398.287201 40.914333,384.299164 46.931267,370.579620 
	C55.492939,351.057556 63.786659,331.265503 74.313652,312.796478 
	C87.455345,289.740143 101.821060,267.237854 117.390884,245.751862 
	C131.376984,226.451385 146.893066,208.083832 163.232285,190.713898 
	C179.520905,173.397736 197.386292,157.514954 215.112900,141.619919 
	C225.765564,132.067917 237.082535,123.134285 248.802094,114.923531 
	C266.027344,102.855507 283.446716,90.941460 301.590332,80.343239 
	C318.479462,70.477791 336.224365,61.991783 353.967682,53.701450 
	C367.972168,47.158073 382.365143,41.333324 396.904633,36.070915 
	C428.905518,24.488531 461.516693,14.968370 495.273346,9.950101 
	C512.191833,7.435003 529.171143,5.330787 546.107300,2.930581 
	C547.141968,2.783945 548.038940,1.666003 549.000000,1.000000 
	C583.354248,1.000000 617.708435,1.000000 652.193848,1.348684 
	C657.263794,2.464406 662.188538,3.340022 667.144043,3.976347 
	C678.160217,5.390912 689.277344,6.205372 700.195801,8.149396 
	C714.212646,10.645108 728.117188,13.827041 741.994995,17.037804 
	C769.261780,23.346270 796.018066,31.513462 821.722595,42.524162 
	C844.181885,52.144760 866.229736,62.794140 888.073059,73.758400 
	C900.623596,80.058105 912.739929,87.385017 924.449402,95.157043 
	C939.056885,104.852615 953.407410,115.019188 967.201538,125.833626 
	C982.370422,137.725800 997.195129,150.133865 1011.393677,163.163025 
	C1023.233215,174.027496 1034.222168,185.866119 1045.088135,197.731003 
	C1055.596802,209.205826 1066.040771,220.825287 1075.498779,233.159119 
	C1095.346680,259.042145 1113.530884,286.132812 1128.905029,314.922455 
	C1143.702148,342.631683 1156.772095,371.180695 1167.059692,400.937958 
	C1177.382935,430.798676 1186.248169,461.050598 1191.055176,492.329437 
	C1194.051025,511.822357 1196.350830,531.421936 1199.068237,550.958923 
	C1199.218750,552.041199 1200.333862,552.989380 1201.000000,554.000000 
	C1201.000000,585.020874 1201.000000,616.041809 1200.659424,647.183350 
	C1199.879517,648.979370 1199.200806,650.632874 1199.046021,652.334045 
	C1198.583862,657.412109 1198.674438,662.560730 1197.924438,667.588623 
	C1195.789795,681.899292 1193.987793,696.305481 1190.876953,710.414368 
	C1185.766724,733.592346 1180.531250,756.802307 1173.828613,779.551025 
	C1168.415405,797.923584 1161.642822,816.026489 1153.883057,833.544678 
	C1143.663086,856.617310 1132.876343,879.559387 1120.479858,901.510925 
	C1109.682495,920.630615 1097.096558,938.887939 1083.870850,956.449341 
	C1069.040283,976.141541 1053.213135,995.176453 1036.663208,1013.450073 
	C1024.361572,1027.032837 1010.479065,1039.238403 996.812378,1051.513916 
	C985.137634,1062.000244 973.179260,1072.263306 960.617371,1081.649536 
	C937.220154,1099.132080 912.712341,1115.061890 886.994263,1128.916382 
	C860.454102,1143.213867 833.107849,1155.941406 804.618652,1165.918701 
	C774.067932,1176.618164 743.150879,1186.172241 711.023315,1191.000122 
	C691.670471,1193.908447 672.244202,1196.326416 652.865784,1199.069092 
	C651.839966,1199.214233 650.952087,1200.333984 650.000000,1201.000000 
M1043.645996,953.153198 
	C1048.301147,947.078857 1053.083862,941.097534 1057.592285,934.916138 
	C1119.386108,850.193909 1155.122192,755.567627 1164.821167,651.196045 
	C1168.095215,615.963318 1167.716431,580.699036 1164.211548,545.432922 
	C1160.886353,511.976410 1154.935059,479.034668 1145.576660,446.791840 
	C1111.947754,330.928711 1048.217773,234.737778 954.275696,159.192596 
	C859.694458,83.133423 751.189148,42.086330 630.014282,35.250481 
	C587.028687,32.825527 544.160767,35.486073 501.750397,43.218922 
	C458.068481,51.183632 415.744934,63.786499 375.130554,81.890228 
	C259.352692,133.497818 170.060425,214.493118 107.366676,324.523560 
	C65.743225,397.574646 42.485100,476.445831 36.249001,560.243164 
	C34.084129,589.333557 34.406212,618.468140 36.800182,647.602173 
	C39.390469,679.125244 44.304741,710.248718 52.343548,740.785950 
	C84.956512,864.673767 151.467911,966.797241 251.999985,1046.010010 
	C344.731903,1119.076904 450.535583,1159.109985 568.609253,1166.104858 
	C611.151123,1168.625244 653.390137,1166.264160 695.429443,1159.187256 
	C744.246582,1150.968994 791.139343,1136.590088 836.047424,1115.868896 
	C917.833496,1078.131714 986.826355,1023.961914 1043.645996,953.153198 
z"/>
<path fill="#000000" opacity="1.000000" stroke="none" 
	d="
M650.468689,1201.000000 
	C650.952087,1200.333984 651.839966,1199.214233 652.865784,1199.069092 
	C672.244202,1196.326416 691.670471,1193.908447 711.023315,1191.000122 
	C743.150879,1186.172241 774.067932,1176.618164 804.618652,1165.918701 
	C833.107849,1155.941406 860.454102,1143.213867 886.994263,1128.916382 
	C912.712341,1115.061890 937.220154,1099.132080 960.617371,1081.649536 
	C973.179260,1072.263306 985.137634,1062.000244 996.812378,1051.513916 
	C1010.479065,1039.238403 1024.361572,1027.032837 1036.663208,1013.450073 
	C1053.213135,995.176453 1069.040283,976.141541 1083.870850,956.449341 
	C1097.096558,938.887939 1109.682495,920.630615 1120.479858,901.510925 
	C1132.876343,879.559387 1143.663086,856.617310 1153.883057,833.544678 
	C1161.642822,816.026489 1168.415405,797.923584 1173.828613,779.551025 
	C1180.531250,756.802307 1185.766724,733.592346 1190.876953,710.414368 
	C1193.987793,696.305481 1195.789795,681.899292 1197.924438,667.588623 
	C1198.674438,662.560730 1198.583862,657.412109 1199.046021,652.334045 
	C1199.200806,650.632874 1199.879517,648.979370 1200.659424,647.652039 
	C1201.000000,832.260315 1201.000000,1016.520569 1201.000000,1201.000000 
	C1017.645813,1201.000000 834.291565,1201.000000 650.468689,1201.000000 
z"/>
<path fill="#000000" opacity="1.000000" stroke="none" 
	d="
M1.000008,650.468628 
	C1.665046,650.795715 2.803198,651.525085 2.925605,652.397034 
	C5.669112,671.940063 8.130405,691.523865 10.991862,711.049133 
	C15.870929,744.341492 25.965773,776.299377 37.143383,807.863586 
	C46.835133,835.231812 59.143990,861.585205 73.161842,886.982971 
	C83.566704,905.834656 95.120094,924.116272 107.148972,941.987366 
	C116.498451,955.877625 126.742973,969.287598 137.715775,981.934021 
	C153.607162,1000.249023 169.779053,1018.444641 187.206314,1035.266724 
	C203.084244,1050.593140 220.180298,1064.842529 237.860031,1078.068604 
	C257.983917,1093.123291 278.727448,1107.573364 300.356995,1120.326904 
	C320.672516,1132.305542 342.150818,1142.507812 363.756073,1152.045044 
	C383.074921,1160.572754 402.958832,1168.132324 423.153107,1174.280884 
	C445.094513,1180.961548 467.555786,1186.126709 490.029816,1190.802002 
	C506.265747,1194.179810 522.896790,1195.650269 539.343018,1198.030762 
	C543.801086,1198.676025 548.228027,1199.536255 552.334595,1200.648926 
	C368.406250,1201.000000 184.812485,1201.000000 1.000000,1201.000000 
	C1.000000,1017.645813 1.000000,834.291565 1.000008,650.468628 
z"/>
<path fill="#000000" opacity="1.000000" stroke="none" 
	d="
M1201.000000,553.531372 
	C1200.333862,552.989380 1199.218750,552.041199 1199.068237,550.958923 
	C1196.350830,531.421936 1194.051025,511.822357 1191.055176,492.329437 
	C1186.248169,461.050598 1177.382935,430.798676 1167.059692,400.937958 
	C1156.772095,371.180695 1143.702148,342.631683 1128.905029,314.922455 
	C1113.530884,286.132812 1095.346680,259.042145 1075.498779,233.159119 
	C1066.040771,220.825287 1055.596802,209.205826 1045.088135,197.731003 
	C1034.222168,185.866119 1023.233215,174.027496 1011.393677,163.163025 
	C997.195129,150.133865 982.370422,137.725800 967.201538,125.833626 
	C953.407410,115.019188 939.056885,104.852615 924.449402,95.157043 
	C912.739929,87.385017 900.623596,80.058105 888.073059,73.758400 
	C866.229736,62.794140 844.181885,52.144760 821.722595,42.524162 
	C796.018066,31.513462 769.261780,23.346270 741.994995,17.037804 
	C728.117188,13.827041 714.212646,10.645108 700.195801,8.149396 
	C689.277344,6.205372 678.160217,5.390912 667.144043,3.976347 
	C662.188538,3.340022 657.263794,2.464406 652.662537,1.348684 
	C835.594055,1.000000 1018.188171,1.000000 1201.000000,1.000000 
	C1201.000000,185.020844 1201.000000,369.041748 1201.000000,553.531372 
z"/>
<path fill="#000000" opacity="1.000000" stroke="none" 
	d="
M548.531372,1.000000 
	C548.038940,1.666003 547.141968,2.783945 546.107300,2.930581 
	C529.171143,5.330787 512.191833,7.435003 495.273346,9.950101 
	C461.516693,14.968370 428.905518,24.488531 396.904633,36.070915 
	C382.365143,41.333324 367.972168,47.158073 353.967682,53.701450 
	C336.224365,61.991783 318.479462,70.477791 301.590332,80.343239 
	C283.446716,90.941460 266.027344,102.855507 248.802094,114.923531 
	C237.082535,123.134285 225.765564,132.067917 215.112900,141.619919 
	C197.386292,157.514954 179.520905,173.397736 163.232285,190.713898 
	C146.893066,208.083832 131.376984,226.451385 117.390884,245.751862 
	C101.821060,267.237854 87.455345,289.740143 74.313652,312.796478 
	C63.786659,331.265503 55.492939,351.057556 46.931267,370.579620 
	C40.914333,384.299164 35.221741,398.287201 30.965849,412.624786 
	C23.664745,437.221313 17.039963,462.054749 11.236316,487.045380 
	C8.004025,500.963654 6.911468,515.388000 5.036086,529.608276 
	C4.136882,536.426575 3.696537,543.304443 2.944326,550.143982 
	C2.847322,551.026001 2.123341,551.839111 1.344898,552.342041 
	C1.000000,368.406433 1.000000,184.812881 1.000000,1.000000 
	C183.354172,1.000000 365.708435,1.000000 548.531372,1.000000 
z"/>
<path fill="#22419A" opacity="1.000000" stroke="none" 
	d="
M1043.417480,953.428711 
	C986.826355,1023.961914 917.833496,1078.131714 836.047424,1115.868896 
	C791.139343,1136.590088 744.246582,1150.968994 695.429443,1159.187256 
	C653.390137,1166.264160 611.151123,1168.625244 568.609253,1166.104858 
	C450.535583,1159.109985 344.731903,1119.076904 251.999985,1046.010010 
	C151.467911,966.797241 84.956512,864.673767 52.343548,740.785950 
	C44.304741,710.248718 39.390469,679.125244 36.800182,647.602173 
	C34.406212,618.468140 34.084129,589.333557 36.249001,560.243164 
	C42.485100,476.445831 65.743225,397.574646 107.366676,324.523560 
	C170.060425,214.493118 259.352692,133.497818 375.130554,81.890228 
	C415.744934,63.786499 458.068481,51.183632 501.750397,43.218922 
	C544.160767,35.486073 587.028687,32.825527 630.014282,35.250481 
	C751.189148,42.086330 859.694458,83.133423 954.275696,159.192596 
	C1048.217773,234.737778 1111.947754,330.928711 1145.576660,446.791840 
	C1154.935059,479.034668 1160.886353,511.976410 1164.211548,545.432922 
	C1167.716431,580.699036 1168.095215,615.963318 1164.821167,651.196045 
	C1155.122192,755.567627 1119.386108,850.193909 1057.592285,934.916138 
	C1053.083862,941.097534 1048.301147,947.078857 1043.417480,953.428711 
M973.788208,680.857910 
	C973.805542,680.031738 973.822937,679.205627 974.009338,677.655090 
	C976.436951,658.227783 979.563599,638.856873 981.134216,619.360535 
	C983.728577,587.157654 980.325317,555.262573 973.958008,523.212646 
	C974.040771,522.885132 973.962830,522.602356 973.158997,521.632141 
	C972.867371,519.665100 972.697510,517.670959 972.265564,515.735168 
	C966.639038,490.520142 958.324097,466.197327 947.506653,442.757812 
	C935.204956,416.102264 920.413696,390.928467 901.697693,367.390106 
	C881.837524,342.188477 859.613525,319.359558 833.637939,299.377441 
	C799.493225,272.782074 761.945801,252.448883 720.787354,239.092163 
	C706.944031,234.599747 692.611206,231.615936 677.855530,227.628021 
	C656.548462,223.048370 634.990601,220.128403 613.213684,220.125381 
	C594.792358,220.122803 576.328064,220.805023 557.965027,222.237885 
	C546.297241,223.148300 534.779785,225.985367 522.345764,227.869263 
	C486.180115,235.230591 451.743713,247.577576 419.749725,265.874237 
	C401.954071,276.051147 385.340424,288.295074 367.584473,300.003723 
	C342.175964,319.811890 319.428955,342.268616 299.373688,368.320251 
	C273.382904,401.818390 253.392059,438.596771 240.116577,478.847321 
	C235.302597,493.443085 232.077087,508.562744 227.935364,524.175598 
	C225.623093,540.398865 222.285416,556.558167 221.268616,572.862244 
	C220.103485,591.545044 220.074951,610.415527 221.273514,629.093994 
	C222.340805,645.726868 225.757187,662.209045 228.042114,679.591797 
	C235.463318,715.565552 247.597336,749.917847 265.779510,781.795349 
	C276.020020,799.749451 288.337341,816.518982 300.076416,834.441528 
	C319.935608,859.930176 342.543701,882.660095 368.647919,902.760742 
	C400.302490,927.513672 435.060822,946.749451 473.009674,959.831238 
	C489.401001,965.481750 506.444733,969.239746 523.957520,974.044006 
	C540.345642,976.363220 556.669922,979.693726 573.138855,980.732971 
	C591.649841,981.901184 610.351074,981.923828 628.858337,980.726624 
	C645.486816,979.651001 661.964661,976.247375 679.379700,973.947510 
	C711.224854,967.447693 741.600403,956.720459 770.630005,942.150574 
	C793.081421,930.882202 814.438904,917.876282 834.592468,901.734253 
	C859.886169,881.826538 882.647461,859.402039 902.637634,833.338562 
	C937.676453,787.989380 961.286072,737.321045 973.788208,680.857910 
M140.937454,326.431366 
	C137.105042,331.627533 133.272644,336.823669 129.253098,342.273560 
	C164.480362,367.827393 199.293793,393.080994 234.251099,418.438995 
	C243.106155,406.439545 251.579941,394.956787 260.274048,383.175476 
	C246.835495,373.293304 233.648575,363.596222 220.348770,353.816101 
	C227.979813,343.336060 235.195450,333.426514 242.609482,323.244507 
	C256.155457,332.987640 269.314484,342.452484 282.661682,352.052643 
	C291.501007,340.073120 300.039368,328.501526 308.772522,316.665924 
	C273.349945,291.008362 238.601944,265.839417 203.604721,240.489975 
	C194.824753,252.409698 186.294495,263.990417 177.605118,275.787170 
	C189.702087,284.617340 201.358215,293.125732 213.346085,301.876282 
	C205.632660,312.231995 198.149307,322.278839 190.578751,332.442749 
	C178.534943,323.760132 167.005325,315.448242 155.290863,307.003082 
	C150.441544,313.553497 145.891998,319.698975 140.937454,326.431366 
M736.472412,112.118057 
	C727.808289,94.469688 713.989746,82.199203 695.494141,76.349686 
	C681.938660,72.062569 667.690430,69.920898 653.700989,67.067833 
	C645.273682,65.349129 636.750793,64.099434 627.807190,62.559132 
	C620.334717,105.422035 612.958069,147.735016 605.541443,190.277740 
	C615.847168,192.184921 625.290833,194.084702 634.788757,195.656342 
	C651.007080,198.340012 666.989502,203.079117 683.674072,201.965698 
	C700.324158,200.854553 716.207703,196.682495 726.024353,182.165527 
	C740.316162,161.030716 744.836792,137.727631 736.472412,112.118057 
M977.004089,414.527161 
	C986.991760,388.487183 996.979370,362.447174 1007.036804,336.225372 
	C1029.436401,339.147614 1051.436890,342.017761 1074.322632,345.003418 
	C1064.512695,331.330414 1055.299438,318.309540 1045.799072,305.501434 
	C1044.753662,304.092041 1042.116211,303.454559 1040.127808,303.221619 
	C1029.379639,301.962280 1018.600769,300.969086 1007.838257,299.829376 
	C1003.055542,299.322906 998.286377,298.687958 992.446289,297.982727 
	C1003.511230,289.820801 1013.513428,282.442749 1023.773254,274.874695 
	C1015.129150,262.939423 1006.777161,251.407471 998.233459,239.610794 
	C962.947083,265.202698 927.996582,290.551056 892.913513,315.995514 
	C901.643005,327.932068 910.151306,339.566223 918.859070,351.473022 
	C928.138062,344.624817 937.508545,338.496429 945.908325,331.243805 
	C951.897705,326.072418 957.607788,326.621002 964.432800,328.635193 
	C963.739746,330.486542 963.208313,332.037598 962.585144,333.550873 
	C956.255859,348.920746 950.018494,364.330170 943.481201,379.611237 
	C942.177795,382.657867 942.547424,384.634369 944.448914,387.188629 
	C952.898804,398.539886 961.124573,410.057892 969.447754,421.503693 
	C970.368713,422.770172 971.394897,423.960114 972.679443,425.570618 
	C974.201782,421.735687 975.485962,418.500580 977.004089,414.527161 
M864.777771,207.259964 
	C860.634033,213.895676 856.698792,220.673370 852.298462,227.134293 
	C845.467834,237.163773 831.733215,238.814728 822.555115,230.983963 
	C814.878967,224.434677 813.746460,214.242920 819.912659,204.274277 
	C833.047546,183.039612 846.325745,161.893661 859.534851,140.704849 
	C860.472290,139.201080 861.325012,137.644470 862.371765,135.846832 
	C850.360291,128.373672 838.676636,121.104431 826.371643,113.448662 
	C810.612976,139.122482 794.317566,164.066208 779.741516,189.977234 
	C769.890015,207.489838 773.111267,225.139450 785.723206,240.736786 
	C795.454956,252.772141 808.058838,261.193268 822.013428,267.452698 
	C848.208557,279.202698 874.709412,276.500763 892.094177,246.297134 
	C904.125549,225.394241 917.692505,205.375381 930.561279,184.953934 
	C931.509521,183.449265 932.360107,181.883072 933.442993,180.024612 
	C920.828735,172.233887 908.484192,164.609741 895.982788,156.888718 
	C885.470520,173.824570 875.292908,190.221329 864.777771,207.259964 
M329.624725,975.973755 
	C325.598297,969.674194 321.620453,963.342834 317.530701,957.084595 
	C313.984558,951.658081 310.132538,946.422791 306.779144,940.883057 
	C305.359619,938.538025 304.398254,935.688049 304.062744,932.964844 
	C303.479218,928.228638 308.148163,924.885193 312.657166,926.430176 
	C320.917389,929.260376 327.574066,940.762146 326.240784,949.625122 
	C326.079071,950.700256 326.489502,952.330688 327.252350,953.004395 
	C336.848083,961.478149 346.557465,969.823059 356.262512,978.222412 
	C366.774567,963.541748 368.150879,949.984741 360.372162,934.321655 
	C352.281006,918.029602 339.833313,905.708130 324.036407,896.916809 
	C305.617340,886.666199 288.170746,888.937317 272.596100,903.104065 
	C261.993439,912.748413 258.222870,926.448914 264.396515,938.941772 
	C270.707550,951.712708 278.439484,963.784241 285.618896,976.121460 
	C287.451294,979.270325 290.018311,982.065491 291.425903,985.372925 
	C294.662231,992.977661 290.242645,998.659241 282.153717,997.116394 
	C278.923065,996.500183 275.517181,994.702881 273.069519,992.477173 
	C265.884521,985.943726 262.419189,978.076172 267.142700,968.535645 
	C256.681244,959.642517 246.571121,951.048096 236.191162,942.224304 
	C226.461349,953.146423 222.198792,965.395813 227.416336,978.869507 
	C238.243286,1006.828979 257.655365,1025.955322 287.642792,1032.639404 
	C299.580017,1035.300293 311.103119,1033.551636 320.504639,1025.193848 
	C336.808929,1010.699585 338.824799,995.262695 329.624725,975.973755 
M453.608795,981.931091 
	C442.156738,977.562927 430.704651,973.194763 418.751678,968.635559 
	C403.532532,1009.147888 388.443542,1049.313843 373.199219,1089.893188 
	C386.853821,1095.219482 400.080750,1100.379028 413.602905,1105.653809 
	C418.343506,1093.248413 422.895416,1081.336914 427.542908,1069.175171 
	C429.646545,1069.938232 431.521820,1070.560669 433.353424,1071.292236 
	C445.540161,1076.159912 457.594482,1081.258179 470.924103,1082.529175 
	C498.744293,1085.181763 522.284241,1059.713501 517.251465,1032.398926 
	C513.864746,1014.018127 502.803528,1002.085449 486.311920,994.796753 
	C475.840515,990.168945 465.021973,986.326477 453.608795,981.931091 
M378.496826,170.009384 
	C364.177856,158.658401 349.858887,147.307419 335.557190,135.970154 
	C322.423431,144.228546 309.655579,152.256836 297.213867,160.080078 
	C306.960480,205.217316 316.568176,249.711227 326.310608,294.829102 
	C338.839325,287.026337 350.907196,279.510620 362.962250,272.002838 
	C361.595123,267.014465 360.171021,262.575195 359.258850,258.033112 
	C358.981873,256.653992 359.637054,254.254852 360.681885,253.571457 
	C371.516510,246.484985 382.518158,239.653946 394.661743,232.003265 
	C398.224915,236.395493 401.783997,240.782730 405.378754,245.213913 
	C418.640747,236.910019 430.794739,229.299896 443.364532,221.429443 
	C421.579559,204.163345 400.314606,187.309357 378.496826,170.009384 
M807.294312,958.810974 
	C803.154785,962.046631 799.015320,965.282349 794.692627,968.661255 
	C802.154846,978.028625 809.270020,986.960205 816.507996,996.046021 
	C826.604675,988.182922 836.391846,980.560974 846.271912,972.866577 
	C865.975525,998.027527 885.318665,1022.728149 904.837219,1047.652832 
	C916.679688,1038.325195 928.006226,1029.404053 939.656372,1020.227905 
	C920.058655,995.329346 900.747375,970.794861 881.170532,945.922913 
	C891.156494,937.913208 900.821533,930.160950 910.797485,922.159302 
	C903.573853,912.734802 896.629700,903.674988 889.470642,894.334839 
	C862.033447,915.854492 834.939636,937.104858 807.294312,958.810974 
M505.267212,74.748207 
	C503.659851,75.022896 502.052490,75.297585 500.088226,75.633263 
	C502.926300,91.960075 505.711578,107.984779 508.497498,124.009369 
	C510.804779,137.280853 513.234619,150.532623 515.374023,163.831116 
	C516.617371,171.559647 513.889343,175.634476 507.685669,176.362137 
	C502.372040,176.985397 499.534760,173.874817 498.025085,169.505173 
	C495.828125,163.146072 494.082214,156.631165 492.092499,150.011368 
	C479.416351,152.300842 466.858215,154.569016 453.984497,156.894196 
	C454.351074,160.360168 454.506805,163.499649 455.036346,166.574753 
	C459.159302,190.518860 471.533630,206.576263 495.358368,209.589066 
	C509.320496,211.354675 522.865295,209.062302 535.493530,202.382294 
	C553.461182,192.877838 562.004517,176.259628 558.651367,156.401794 
	C554.110657,129.511017 549.346252,102.657951 544.650452,75.793495 
	C544.207581,73.259697 543.569458,70.760017 543.005249,68.167686 
	C530.312805,70.363808 518.200684,72.459526 505.267212,74.748207 
M603.923401,1028.565674 
	C603.500061,1022.140198 603.076721,1015.714722 602.639465,1009.077637 
	C588.419373,1009.880920 574.689148,1010.656555 560.471924,1011.459656 
	C562.790955,1054.827026 565.082642,1097.682739 567.404419,1141.102539 
	C601.471008,1139.225220 635.134094,1137.370239 669.213989,1135.492188 
	C668.721436,1125.013062 668.255798,1115.106323 667.775391,1104.885986 
	C647.745667,1105.768921 628.206909,1106.630127 608.341919,1107.505615 
	C606.854187,1081.032349 605.406921,1055.278198 603.923401,1028.565674 
M66.025345,598.500244 
	C67.703362,624.550659 69.406029,650.599548 71.024780,676.653625 
	C71.204895,679.552612 72.247887,680.802612 75.298546,680.622192 
	C79.114059,680.396606 82.953102,680.569641 86.781990,680.569763 
	C95.713104,680.570007 104.644211,680.569824 114.196960,680.569824 
	C105.724442,627.769470 105.491539,575.605530 113.930466,523.256592 
	C99.733673,523.256592 85.831261,523.256592 71.577805,523.256592 
	C68.092598,548.028442 66.150246,572.691772 66.025345,598.500244 
M1052.710815,620.318970 
	C1053.711060,587.700867 1052.243896,555.266357 1046.096191,523.217773 
	C1031.708618,523.217773 1017.931702,523.217773 1003.941223,523.217773 
	C1013.722595,575.651794 1013.720886,627.864136 1003.529907,680.302917 
	C1017.886963,680.302917 1031.633667,680.302917 1045.693115,680.302917 
	C1049.971436,660.716919 1051.314209,640.992981 1052.710815,620.318970 
M193.024963,557.756226 
	C194.707214,546.299377 196.389465,534.842468 198.102783,523.174072 
	C183.993561,523.174072 170.204391,523.174072 156.021347,523.174072 
	C146.765732,575.626465 147.151352,627.898743 156.127396,680.301392 
	C170.230896,680.301392 184.000473,680.301392 198.245621,680.301392 
	C197.979263,678.210999 197.770477,676.426025 197.522064,674.646606 
	C195.980347,663.603027 194.113068,652.594116 192.944489,641.511414 
	C190.034393,613.912415 190.387314,586.282837 193.024963,557.756226 
M1134.262207,556.118164 
	C1133.160156,545.224304 1132.058228,534.330444 1130.942993,523.305542 
	C1116.481934,523.305542 1102.604614,523.305542 1088.470947,523.305542 
	C1096.386475,575.827820 1096.364624,628.033020 1088.135376,680.274475 
	C1102.304810,680.274475 1116.058350,680.274475 1129.720581,680.274475 
	C1135.432617,661.186279 1138.140991,587.993591 1134.262207,556.118164 
M719.434692,991.950256 
	C715.775757,993.356079 712.116760,994.761902 708.296631,996.229675 
	C723.230225,1037.009766 737.953979,1077.216675 752.828369,1117.834961 
	C766.899109,1112.777832 780.425232,1107.916504 794.218201,1102.959229 
	C779.258057,1061.986694 764.466797,1021.476746 749.596497,980.750305 
	C739.465454,984.528076 729.823730,988.123413 719.434692,991.950256 
z"/>
<path fill="#ED1C24" opacity="1.000000" stroke="none" 
	d="
M228.136841,678.757690 
	C225.757187,662.209045 222.340805,645.726868 221.273514,629.093994 
	C220.074951,610.415527 220.103485,591.545044 221.268616,572.862244 
	C222.285416,556.558167 225.623093,540.398865 228.490891,523.805908 
	C273.614868,523.436157 318.183289,523.443970 362.751709,523.412231 
	C364.885986,523.410706 367.019958,523.059326 368.973328,523.318848 
	C368.727966,524.761902 368.607086,525.757080 368.606903,526.752197 
	C368.597748,576.073669 368.594086,625.395203 368.622650,674.716675 
	C368.623505,676.184509 368.974548,677.652039 368.697510,678.994141 
	C321.534088,678.831604 274.835480,678.794678 228.136841,678.757690 
z"/>
<path fill="#ED1C24" opacity="1.000000" stroke="none" 
	d="
M678.508972,973.870544 
	C661.964661,976.247375 645.486816,979.651001 628.858337,980.726624 
	C610.351074,981.923828 591.649841,981.901184 573.138855,980.732971 
	C556.669922,979.693726 540.345642,976.363220 523.579712,973.491577 
	C523.204102,928.056030 523.210205,883.172913 523.194885,838.289734 
	C523.194214,836.470581 522.992432,834.651489 523.319092,833.044617 
	C524.583130,833.315735 525.412476,833.426025 526.241760,833.426208 
	C575.734985,833.434937 625.228149,833.439697 674.721375,833.410400 
	C676.190857,833.409546 677.660156,833.041687 678.949097,833.294800 
	C678.690918,835.733337 678.546387,837.721985 678.545410,839.710754 
	C678.523743,884.430664 678.517822,929.150635 678.508972,973.870544 
z"/>
<path fill="#ED1C24" opacity="1.000000" stroke="none" 
	d="
M523.194946,227.958450 
	C534.779785,225.985367 546.297241,223.148300 557.965027,222.237885 
	C576.328064,220.805023 594.792358,220.122803 613.213684,220.125381 
	C634.990601,220.128403 656.548462,223.048370 678.192078,228.258453 
	C678.530945,273.313751 678.526245,317.738617 678.559021,362.163452 
	C678.560486,364.122833 678.903931,366.081940 678.615234,368.089539 
	C656.846130,368.152618 635.549927,368.193298 614.253662,368.175873 
	C583.808899,368.151001 553.364075,368.083679 523.039001,367.576996 
	C523.170776,320.732513 523.182861,274.345490 523.194946,227.958450 
z"/>
<path fill="#ED1C24" opacity="1.000000" stroke="none" 
	d="
M973.841125,523.674500 
	C980.325317,555.262573 983.728577,587.157654 981.134216,619.360535 
	C979.563599,638.856873 976.436951,658.227783 973.736084,678.076538 
	C973.462830,678.497986 973.208618,678.800354 972.727295,678.780151 
	C927.638611,678.756165 883.031311,678.749207 838.424011,678.762573 
	C836.939819,678.763000 835.455566,678.968628 833.895996,678.609314 
	C833.805725,637.876831 833.776123,597.613586 833.785217,557.350342 
	C833.787781,545.873535 833.902588,534.396790 834.396301,523.126831 
	C881.038452,523.344788 927.250244,523.355896 973.504272,523.508667 
	C973.546570,523.650269 973.841125,523.674500 973.841125,523.674500 
z"/>
<path fill="#FFFFFF" opacity="1.000000" stroke="none" 
	d="
M369.154083,522.870911 
	C367.019958,523.059326 364.885986,523.410706 362.751709,523.412231 
	C318.183289,523.443970 273.614868,523.436157 228.586609,523.439758 
	C232.077087,508.562744 235.302597,493.443085 240.116577,478.847321 
	C253.392059,438.596771 273.382904,401.818390 300.125275,368.231995 
	C323.609131,368.110046 346.341370,368.076294 369.045776,368.016663 
	C369.017944,367.990784 368.963409,367.937805 368.828857,368.394104 
	C368.665710,419.601959 368.635895,470.353485 368.622375,521.105042 
	C368.622223,521.756165 368.830170,522.407288 368.992859,523.009888 
	C369.044708,522.961426 369.154083,522.870911 369.154083,522.870911 
z"/>
<path fill="#FFFFFF" opacity="1.000000" stroke="none" 
	d="
M678.944336,973.909058 
	C678.517822,929.150635 678.523743,884.430664 678.545410,839.710754 
	C678.546387,837.721985 678.690918,835.733337 678.904053,833.349487 
	C679.039490,832.954346 678.942566,833.057678 679.393066,833.211304 
	C730.100037,833.387756 780.356567,833.413330 830.613098,833.416870 
	C831.761902,833.416931 832.910645,833.166626 834.034729,833.007690 
	C834.010010,832.982300 833.961792,832.930420 833.900513,833.400269 
	C833.884033,856.580261 833.928833,879.290405 833.973633,902.000610 
	C814.438904,917.876282 793.081421,930.882202 770.630005,942.150574 
	C741.600403,956.720459 711.224854,967.447693 678.944336,973.909058 
z"/>
<path fill="#FFFFFF" opacity="1.000000" stroke="none" 
	d="
M228.089478,679.174805 
	C274.835480,678.794678 321.534088,678.831604 368.641113,678.949951 
	C369.049530,679.031311 368.943634,678.934692 368.801758,679.389038 
	C368.638794,730.098083 368.616089,780.352905 368.611023,830.607666 
	C368.610962,831.424561 368.826172,832.241394 368.981567,833.017700 
	C369.022217,832.977112 369.102905,832.895325 368.653534,833.066284 
	C354.960602,833.303223 341.716766,833.338989 328.473541,833.445374 
	C318.888336,833.522400 309.303864,833.693176 299.719086,833.822144 
	C288.337341,816.518982 276.020020,799.749451 265.779510,781.795349 
	C247.597336,749.917847 235.463318,715.565552 228.089478,679.174805 
z"/>
<path fill="#FFFFFF" opacity="1.000000" stroke="none" 
	d="
M522.884399,832.832397 
	C522.992432,834.651489 523.194214,836.470581 523.194885,838.289734 
	C523.210205,883.172913 523.204102,928.056030 523.196960,973.398315 
	C506.444733,969.239746 489.401001,965.481750 473.009674,959.831238 
	C435.060822,946.749451 400.302490,927.513672 368.583862,902.141113 
	C368.545929,880.614319 368.558868,859.707214 368.619904,838.800232 
	C368.625671,836.831482 368.934662,834.863586 369.102905,832.895325 
	C369.102905,832.895325 369.022217,832.977112 369.433533,833.166626 
	C420.104187,833.379822 470.363556,833.405212 520.622925,833.411499 
	C521.437683,833.411621 522.252380,833.178528 523.019165,833.000732 
	C522.971191,832.947144 522.884399,832.832397 522.884399,832.832397 
z"/>
<path fill="#FFFFFF" opacity="1.000000" stroke="none" 
	d="
M679.088135,368.041168 
	C678.903931,366.081940 678.560486,364.122833 678.559021,362.163452 
	C678.526245,317.738617 678.530945,273.313751 678.515381,228.415741 
	C692.611206,231.615936 706.944031,234.599747 720.787354,239.092163 
	C761.945801,252.448883 799.493225,272.782074 833.728516,300.124023 
	C833.858765,323.268555 833.898376,345.666504 833.977112,368.025513 
	C834.016174,367.986633 834.094666,367.909210 833.630127,368.015442 
	C782.589966,368.141174 732.014221,368.161835 681.438538,368.170135 
	C680.614380,368.170258 679.790222,368.019745 678.995911,367.965759 
	C679.025757,367.991974 679.088135,368.041168 679.088135,368.041168 
z"/>
<path fill="#FFFFFF" opacity="1.000000" stroke="none" 
	d="
M973.462036,523.367065 
	C927.250244,523.355896 881.038452,523.344788 834.418823,523.155762 
	C834.010986,522.977844 834.059326,523.033020 833.938721,522.575989 
	C833.802490,471.868591 833.784729,421.618195 833.784851,371.367828 
	C833.784851,370.214966 833.986877,369.062073 834.094666,367.909210 
	C834.094666,367.909210 834.016174,367.986633 834.447388,368.075104 
	C857.238342,368.110931 879.598083,368.058289 901.957764,368.005646 
	C920.413696,390.928467 935.204956,416.102264 947.506653,442.757812 
	C958.324097,466.197327 966.639038,490.520142 972.265564,515.735168 
	C972.697510,517.670959 972.867371,519.665100 973.311646,522.230713 
	C973.463562,523.008606 973.462830,523.187805 973.462036,523.367065 
z"/>
<path fill="#FFFFFF" opacity="1.000000" stroke="none" 
	d="
M522.770386,227.913849 
	C523.182861,274.345490 523.170776,320.732513 523.071899,367.551422 
	C522.985107,367.983307 523.048950,367.929718 522.588013,368.036987 
	C472.062653,368.156830 421.998260,368.170868 371.933899,368.171844 
	C370.943726,368.171844 369.953583,368.019196 368.963409,367.937805 
	C368.963409,367.937805 369.017944,367.990784 368.851440,367.580933 
	C368.653564,353.911804 368.662933,340.652252 368.576965,327.393311 
	C368.516937,318.130920 368.326385,308.869354 368.194092,299.607422 
	C385.340424,288.295074 401.954071,276.051147 419.749725,265.874237 
	C451.743713,247.577576 486.180115,235.230591 522.770386,227.913849 
z"/>
<path fill="#FFFFFF" opacity="1.000000" stroke="none" 
	d="
M833.971375,679.078552 
	C835.455566,678.968628 836.939819,678.763000 838.424011,678.762573 
	C883.031311,678.749207 927.638611,678.756165 972.815552,679.091919 
	C973.388855,680.049561 973.392517,680.675171 973.396240,681.300842 
	C961.286072,737.321045 937.676453,787.989380 901.998779,833.417114 
	C881.029175,833.475525 860.698303,833.470093 840.367676,833.413330 
	C838.231995,833.407410 836.097046,833.098694 833.961792,832.930420 
	C833.961792,832.930420 834.010010,832.982300 833.915894,832.550171 
	C833.806458,782.050781 833.789307,731.983582 833.787903,681.916321 
	C833.787903,680.929504 833.970947,679.942627 834.043518,678.985962 
	C834.018494,679.016052 833.971375,679.078552 833.971375,679.078552 
z"/>
<path fill="#FEFEFE" opacity="1.000000" stroke="none" 
	d="
M141.139954,326.137909 
	C145.891998,319.698975 150.441544,313.553497 155.290863,307.003082 
	C167.005325,315.448242 178.534943,323.760132 190.578751,332.442749 
	C198.149307,322.278839 205.632660,312.231995 213.346085,301.876282 
	C201.358215,293.125732 189.702087,284.617340 177.605118,275.787170 
	C186.294495,263.990417 194.824753,252.409698 203.604721,240.489975 
	C238.601944,265.839417 273.349945,291.008362 308.772522,316.665924 
	C300.039368,328.501526 291.501007,340.073120 282.661682,352.052643 
	C269.314484,342.452484 256.155457,332.987640 242.609482,323.244507 
	C235.195450,333.426514 227.979813,343.336060 220.348770,353.816101 
	C233.648575,363.596222 246.835495,373.293304 260.274048,383.175476 
	C251.579941,394.956787 243.106155,406.439545 234.251099,418.438995 
	C199.293793,393.080994 164.480362,367.827393 129.253098,342.273560 
	C133.272644,336.823669 137.105042,331.627533 141.139954,326.137909 
z"/>
<path fill="#FEFEFE" opacity="1.000000" stroke="none" 
	d="
M736.651367,112.458542 
	C744.836792,137.727631 740.316162,161.030716 726.024353,182.165527 
	C716.207703,196.682495 700.324158,200.854553 683.674072,201.965698 
	C666.989502,203.079117 651.007080,198.340012 634.788757,195.656342 
	C625.290833,194.084702 615.847168,192.184921 605.541443,190.277740 
	C612.958069,147.735016 620.334717,105.422035 627.807190,62.559132 
	C636.750793,64.099434 645.273682,65.349129 653.700989,67.067833 
	C667.690430,69.920898 681.938660,72.062569 695.494141,76.349686 
	C713.989746,82.199203 727.808289,94.469688 736.651367,112.458542 
M687.315735,161.802292 
	C696.191223,149.995148 698.601074,136.493729 696.986877,122.228020 
	C696.584778,118.674644 694.816040,114.675438 692.398438,112.062790 
	C685.044312,104.115425 675.054565,101.887703 664.499817,100.441605 
	C660.594360,123.156418 656.783508,145.321167 652.926270,167.755188 
	C665.348145,170.526382 676.777710,170.852219 687.315735,161.802292 
z"/>
<path fill="#FDFEFE" opacity="1.000000" stroke="none" 
	d="
M976.887146,414.896301 
	C975.485962,418.500580 974.201782,421.735687 972.679443,425.570618 
	C971.394897,423.960114 970.368713,422.770172 969.447754,421.503693 
	C961.124573,410.057892 952.898804,398.539886 944.448914,387.188629 
	C942.547424,384.634369 942.177795,382.657867 943.481201,379.611237 
	C950.018494,364.330170 956.255859,348.920746 962.585144,333.550873 
	C963.208313,332.037598 963.739746,330.486542 964.432800,328.635193 
	C957.607788,326.621002 951.897705,326.072418 945.908325,331.243805 
	C937.508545,338.496429 928.138062,344.624817 918.859070,351.473022 
	C910.151306,339.566223 901.643005,327.932068 892.913513,315.995514 
	C927.996582,290.551056 962.947083,265.202698 998.233459,239.610794 
	C1006.777161,251.407471 1015.129150,262.939423 1023.773254,274.874695 
	C1013.513428,282.442749 1003.511230,289.820801 992.446289,297.982727 
	C998.286377,298.687958 1003.055542,299.322906 1007.838257,299.829376 
	C1018.600769,300.969086 1029.379639,301.962280 1040.127808,303.221619 
	C1042.116211,303.454559 1044.753662,304.092041 1045.799072,305.501434 
	C1055.299438,318.309540 1064.512695,331.330414 1074.322632,345.003418 
	C1051.436890,342.017761 1029.436401,339.147614 1007.036804,336.225372 
	C996.979370,362.447174 986.991760,388.487183 976.887146,414.896301 
z"/>
<path fill="#FEFEFE" opacity="1.000000" stroke="none" 
	d="
M864.946533,206.939026 
	C875.292908,190.221329 885.470520,173.824570 895.982788,156.888718 
	C908.484192,164.609741 920.828735,172.233887 933.442993,180.024612 
	C932.360107,181.883072 931.509521,183.449265 930.561279,184.953934 
	C917.692505,205.375381 904.125549,225.394241 892.094177,246.297134 
	C874.709412,276.500763 848.208557,279.202698 822.013428,267.452698 
	C808.058838,261.193268 795.454956,252.772141 785.723206,240.736786 
	C773.111267,225.139450 769.890015,207.489838 779.741516,189.977234 
	C794.317566,164.066208 810.612976,139.122482 826.371643,113.448662 
	C838.676636,121.104431 850.360291,128.373672 862.371765,135.846832 
	C861.325012,137.644470 860.472290,139.201080 859.534851,140.704849 
	C846.325745,161.893661 833.047546,183.039612 819.912659,204.274277 
	C813.746460,214.242920 814.878967,224.434677 822.555115,230.983963 
	C831.733215,238.814728 845.467834,237.163773 852.298462,227.134293 
	C856.698792,220.673370 860.634033,213.895676 864.946533,206.939026 
z"/>
<path fill="#FDFEFE" opacity="1.000000" stroke="none" 
	d="
M329.783936,976.316895 
	C338.824799,995.262695 336.808929,1010.699585 320.504639,1025.193848 
	C311.103119,1033.551636 299.580017,1035.300293 287.642792,1032.639404 
	C257.655365,1025.955322 238.243286,1006.828979 227.416336,978.869507 
	C222.198792,965.395813 226.461349,953.146423 236.191162,942.224304 
	C246.571121,951.048096 256.681244,959.642517 267.142700,968.535645 
	C262.419189,978.076172 265.884521,985.943726 273.069519,992.477173 
	C275.517181,994.702881 278.923065,996.500183 282.153717,997.116394 
	C290.242645,998.659241 294.662231,992.977661 291.425903,985.372925 
	C290.018311,982.065491 287.451294,979.270325 285.618896,976.121460 
	C278.439484,963.784241 270.707550,951.712708 264.396515,938.941772 
	C258.222870,926.448914 261.993439,912.748413 272.596100,903.104065 
	C288.170746,888.937317 305.617340,886.666199 324.036407,896.916809 
	C339.833313,905.708130 352.281006,918.029602 360.372162,934.321655 
	C368.150879,949.984741 366.774567,963.541748 356.262512,978.222412 
	C346.557465,969.823059 336.848083,961.478149 327.252350,953.004395 
	C326.489502,952.330688 326.079071,950.700256 326.240784,949.625122 
	C327.574066,940.762146 320.917389,929.260376 312.657166,926.430176 
	C308.148163,924.885193 303.479218,928.228638 304.062744,932.964844 
	C304.398254,935.688049 305.359619,938.538025 306.779144,940.883057 
	C310.132538,946.422791 313.984558,951.658081 317.530701,957.084595 
	C321.620453,963.342834 325.598297,969.674194 329.783936,976.316895 
z"/>
<path fill="#FEFEFE" opacity="1.000000" stroke="none" 
	d="
M453.983948,982.031433 
	C465.021973,986.326477 475.840515,990.168945 486.311920,994.796753 
	C502.803528,1002.085449 513.864746,1014.018127 517.251465,1032.398926 
	C522.284241,1059.713501 498.744293,1085.181763 470.924103,1082.529175 
	C457.594482,1081.258179 445.540161,1076.159912 433.353424,1071.292236 
	C431.521820,1070.560669 429.646545,1069.938232 427.542908,1069.175171 
	C422.895416,1081.336914 418.343506,1093.248413 413.602905,1105.653809 
	C400.080750,1100.379028 386.853821,1095.219482 373.199219,1089.893188 
	C388.443542,1049.313843 403.532532,1009.147888 418.751678,968.635559 
	C430.704651,973.194763 442.156738,977.562927 453.983948,982.031433 
M448.567841,1041.909180 
	C451.834839,1043.111572 455.103485,1044.309570 458.368469,1045.517456 
	C465.718536,1048.236450 471.255371,1046.330566 474.755341,1039.870728 
	C477.938660,1033.995361 476.413452,1025.456543 470.531128,1022.242981 
	C463.812744,1018.572632 456.441650,1016.096924 449.026337,1012.963562 
	C445.554932,1022.001709 442.447235,1030.092896 439.286560,1038.322021 
	C442.599457,1039.607910 445.215515,1040.623413 448.567841,1041.909180 
z"/>
<path fill="#FDFEFE" opacity="1.000000" stroke="none" 
	d="
M378.773224,170.232376 
	C400.314606,187.309357 421.579559,204.163345 443.364532,221.429443 
	C430.794739,229.299896 418.640747,236.910019 405.378754,245.213913 
	C401.783997,240.782730 398.224915,236.395493 394.661743,232.003265 
	C382.518158,239.653946 371.516510,246.484985 360.681885,253.571457 
	C359.637054,254.254852 358.981873,256.653992 359.258850,258.033112 
	C360.171021,262.575195 361.595123,267.014465 362.962250,272.002838 
	C350.907196,279.510620 338.839325,287.026337 326.310608,294.829102 
	C316.568176,249.711227 306.960480,205.217316 297.213867,160.080078 
	C309.655579,152.256836 322.423431,144.228546 335.557190,135.970154 
	C349.858887,147.307419 364.177856,158.658401 378.773224,170.232376 
M348.550385,218.010040 
	C349.453796,221.144882 350.357208,224.279724 351.419891,227.967361 
	C358.689026,223.536301 365.531738,219.365204 372.783142,214.944962 
	C361.613434,205.025803 351.087006,195.677948 340.560608,186.330078 
	C340.301361,186.478668 340.042114,186.627243 339.782867,186.775818 
	C342.608398,196.935059 345.433929,207.094299 348.550385,218.010040 
z"/>
<path fill="#FDFEFE" opacity="1.000000" stroke="none" 
	d="
M807.570068,958.583130 
	C834.939636,937.104858 862.033447,915.854492 889.470642,894.334839 
	C896.629700,903.674988 903.573853,912.734802 910.797485,922.159302 
	C900.821533,930.160950 891.156494,937.913208 881.170532,945.922913 
	C900.747375,970.794861 920.058655,995.329346 939.656372,1020.227905 
	C928.006226,1029.404053 916.679688,1038.325195 904.837219,1047.652832 
	C885.318665,1022.728149 865.975525,998.027527 846.271912,972.866577 
	C836.391846,980.560974 826.604675,988.182922 816.507996,996.046021 
	C809.270020,986.960205 802.154846,978.028625 794.692627,968.661255 
	C799.015320,965.282349 803.154785,962.046631 807.570068,958.583130 
z"/>
<path fill="#FDFEFE" opacity="1.000000" stroke="none" 
	d="
M505.677856,74.651726 
	C518.200684,72.459526 530.312805,70.363808 543.005249,68.167686 
	C543.569458,70.760017 544.207581,73.259697 544.650452,75.793495 
	C549.346252,102.657951 554.110657,129.511017 558.651367,156.401794 
	C562.004517,176.259628 553.461182,192.877838 535.493530,202.382294 
	C522.865295,209.062302 509.320496,211.354675 495.358368,209.589066 
	C471.533630,206.576263 459.159302,190.518860 455.036346,166.574753 
	C454.506805,163.499649 454.351074,160.360168 453.984497,156.894196 
	C466.858215,154.569016 479.416351,152.300842 492.092499,150.011368 
	C494.082214,156.631165 495.828125,163.146072 498.025085,169.505173 
	C499.534760,173.874817 502.372040,176.985397 507.685669,176.362137 
	C513.889343,175.634476 516.617371,171.559647 515.374023,163.831116 
	C513.234619,150.532623 510.804779,137.280853 508.497498,124.009369 
	C505.711578,107.984779 502.926300,91.960075 500.088226,75.633263 
	C502.052490,75.297585 503.659851,75.022896 505.677856,74.651726 
z"/>
<path fill="#FDFDFE" opacity="1.000000" stroke="none" 
	d="
M603.941528,1029.044922 
	C605.406921,1055.278198 606.854187,1081.032349 608.341919,1107.505615 
	C628.206909,1106.630127 647.745667,1105.768921 667.775391,1104.885986 
	C668.255798,1115.106323 668.721436,1125.013062 669.213989,1135.492188 
	C635.134094,1137.370239 601.471008,1139.225220 567.404419,1141.102539 
	C565.082642,1097.682739 562.790955,1054.827026 560.471924,1011.459656 
	C574.689148,1010.656555 588.419373,1009.880920 602.639465,1009.077637 
	C603.076721,1015.714722 603.500061,1022.140198 603.941528,1029.044922 
z"/>
<path fill="#FDFDFE" opacity="1.000000" stroke="none" 
	d="
M66.027771,598.000305 
	C66.150246,572.691772 68.092598,548.028442 71.577805,523.256592 
	C85.831261,523.256592 99.733673,523.256592 113.930466,523.256592 
	C105.491539,575.605530 105.724442,627.769470 114.196960,680.569824 
	C104.644211,680.569824 95.713104,680.570007 86.781990,680.569763 
	C82.953102,680.569641 79.114059,680.396606 75.298546,680.622192 
	C72.247887,680.802612 71.204895,679.552612 71.024780,676.653625 
	C69.406029,650.599548 67.703362,624.550659 66.027771,598.000305 
z"/>
<path fill="#FDFDFE" opacity="1.000000" stroke="none" 
	d="
M1052.702515,620.796265 
	C1051.314209,640.992981 1049.971436,660.716919 1045.693115,680.302917 
	C1031.633667,680.302917 1017.886963,680.302917 1003.529907,680.302917 
	C1013.720886,627.864136 1013.722595,575.651794 1003.941223,523.217773 
	C1017.931702,523.217773 1031.708618,523.217773 1046.096191,523.217773 
	C1052.243896,555.266357 1053.711060,587.700867 1052.702515,620.796265 
z"/>
<path fill="#FDFDFE" opacity="1.000000" stroke="none" 
	d="
M192.994080,558.212646 
	C190.387314,586.282837 190.034393,613.912415 192.944489,641.511414 
	C194.113068,652.594116 195.980347,663.603027 197.522064,674.646606 
	C197.770477,676.426025 197.979263,678.210999 198.245621,680.301392 
	C184.000473,680.301392 170.230896,680.301392 156.127396,680.301392 
	C147.151352,627.898743 146.765732,575.626465 156.021347,523.174072 
	C170.204391,523.174072 183.993561,523.174072 198.102783,523.174072 
	C196.389465,534.842468 194.707214,546.299377 192.994080,558.212646 
z"/>
<path fill="#FDFDFE" opacity="1.000000" stroke="none" 
	d="
M1134.310059,556.579468 
	C1138.140991,587.993591 1135.432617,661.186279 1129.720581,680.274475 
	C1116.058350,680.274475 1102.304810,680.274475 1088.135376,680.274475 
	C1096.364624,628.033020 1096.386475,575.827820 1088.470947,523.305542 
	C1102.604614,523.305542 1116.481934,523.305542 1130.942993,523.305542 
	C1132.058228,534.330444 1133.160156,545.224304 1134.310059,556.579468 
z"/>
<path fill="#FDFEFE" opacity="1.000000" stroke="none" 
	d="
M719.808350,991.834473 
	C729.823730,988.123413 739.465454,984.528076 749.596497,980.750305 
	C764.466797,1021.476746 779.258057,1061.986694 794.218201,1102.959229 
	C780.425232,1107.916504 766.899109,1112.777832 752.828369,1117.834961 
	C737.953979,1077.216675 723.230225,1037.009766 708.296631,996.229675 
	C712.116760,994.761902 715.775757,993.356079 719.808350,991.834473 
z"/>
<path fill="#EC1C24" opacity="1.000000" stroke="none" 
	d="
M368.653534,833.066284 
	C368.934662,834.863586 368.625671,836.831482 368.619904,838.800232 
	C368.558868,859.707214 368.545929,880.614319 368.362183,901.923828 
	C342.543701,882.660095 319.935608,859.930176 299.897766,834.131836 
	C309.303864,833.693176 318.888336,833.522400 328.473541,833.445374 
	C341.716766,833.338989 354.960602,833.303223 368.653534,833.066284 
z"/>
<path fill="#EC1C24" opacity="1.000000" stroke="none" 
	d="
M367.889282,299.805573 
	C368.326385,308.869354 368.516937,318.130920 368.576965,327.393311 
	C368.662933,340.652252 368.653564,353.911804 368.879272,367.606812 
	C346.341370,368.076294 323.609131,368.110046 300.411285,368.058472 
	C319.428955,342.268616 342.175964,319.811890 367.889282,299.805573 
z"/>
<path fill="#EC1C24" opacity="1.000000" stroke="none" 
	d="
M833.900513,833.400269 
	C836.097046,833.098694 838.231995,833.407410 840.367676,833.413330 
	C860.698303,833.470093 881.029175,833.475525 901.759033,833.621399 
	C882.647461,859.402039 859.886169,881.826538 834.283081,901.867432 
	C833.928833,879.290405 833.884033,856.580261 833.900513,833.400269 
z"/>
<path fill="#EC1C24" opacity="1.000000" stroke="none" 
	d="
M901.827759,367.697876 
	C879.598083,368.058289 857.238342,368.110931 834.408325,368.114014 
	C833.898376,345.666504 833.858765,323.268555 833.906433,300.404907 
	C859.613525,319.359558 881.837524,342.188477 901.827759,367.697876 
z"/>
<path fill="#F68B8F" opacity="1.000000" stroke="none" 
	d="
M973.592224,681.079346 
	C973.392517,680.675171 973.388855,680.049561 973.296875,679.112122 
	C973.208618,678.800354 973.462830,678.497986 973.651550,678.438721 
	C973.822937,679.205627 973.805542,680.031738 973.592224,681.079346 
z"/>
<path fill="#F68B8F" opacity="1.000000" stroke="none" 
	d="
M973.504272,523.508667 
	C973.462830,523.187805 973.463562,523.008606 973.594238,522.596802 
	C973.962830,522.602356 974.040771,522.885132 973.899536,523.443604 
	C973.841125,523.674500 973.546570,523.650269 973.504272,523.508667 
z"/>
<path fill="#FFFFFF" opacity="1.000000" stroke="none" 
	d="
M369.105927,679.075562 
	C368.974548,677.652039 368.623505,676.184509 368.622650,674.716675 
	C368.594086,625.395203 368.597748,576.073669 368.606903,526.752197 
	C368.607086,525.757080 368.727966,524.761902 368.973328,523.318848 
	C369.154083,522.870911 369.044708,522.961426 369.444519,523.159912 
	C419.937469,523.383240 470.030640,523.410217 520.123779,523.417053 
	C521.104858,523.417175 522.085876,523.180664 523.027588,523.013489 
	C522.988220,522.972412 522.910156,522.889832 523.010254,523.356812 
	C523.139282,574.925720 523.169373,626.027649 523.185181,677.129517 
	C523.185364,677.785400 523.003540,678.441284 522.945862,679.057251 
	C522.985107,679.017334 523.064270,678.938293 522.597229,678.859680 
	C485.368988,678.770508 448.607758,678.741882 411.846558,678.758423 
	C397.545563,678.764832 383.244598,678.872864 368.943634,678.934692 
	C368.943634,678.934692 369.049530,679.031311 369.105927,679.075562 
z"/>
<path fill="#FFFFFF" opacity="1.000000" stroke="none" 
	d="
M679.084473,832.899658 
	C677.660156,833.041687 676.190857,833.409546 674.721375,833.410400 
	C625.228149,833.439697 575.734985,833.434937 526.241760,833.426208 
	C525.412476,833.426025 524.583130,833.315735 523.319092,833.044617 
	C522.884399,832.832397 522.971191,832.947144 523.077271,832.531738 
	C523.190674,816.648193 523.216919,801.179932 523.201721,785.711731 
	C523.166626,750.120605 523.111328,714.529419 523.064270,678.938293 
	C523.064270,678.938293 522.985107,679.017334 523.404297,678.924072 
	C574.598328,678.804688 625.373169,678.776550 676.147949,678.766602 
	C677.135925,678.766357 678.123840,678.979126 679.070190,679.053101 
	C679.028503,679.013672 678.945679,678.934387 678.781067,679.382202 
	C678.590759,729.926880 678.562744,780.023804 678.556213,830.120728 
	C678.556091,831.099731 678.808167,832.078674 678.942566,833.057678 
	C678.942566,833.057678 679.039490,832.954346 679.084473,832.899658 
z"/>
<path fill="#FFFFFF" opacity="1.000000" stroke="none" 
	d="
M522.952209,368.008881 
	C553.364075,368.083679 583.808899,368.151001 614.253662,368.175873 
	C635.549927,368.193298 656.846130,368.152618 678.615234,368.089539 
	C679.088135,368.041168 679.025757,367.991974 678.839233,368.416077 
	C678.618958,419.600067 678.583801,470.359955 678.567932,521.119812 
	C678.567688,521.765808 678.812500,522.411987 678.983398,523.017273 
	C679.023926,522.976501 679.105774,522.895691 678.656250,523.067261 
	C677.212219,523.304321 676.217712,523.427002 675.223145,523.427185 
	C625.921021,523.436462 576.618835,523.440002 527.316711,523.412415 
	C525.847778,523.411560 524.379028,523.071655 522.910156,522.889832 
	C522.910156,522.889832 522.988220,522.972412 523.085815,522.544556 
	C523.190735,497.498718 523.221497,472.880737 523.199158,448.262787 
	C523.174805,421.485077 523.101135,394.707397 523.048950,367.929718 
	C523.048950,367.929718 522.985107,367.983307 522.952209,368.008881 
z"/>
<path fill="#FFFFFF" opacity="1.000000" stroke="none" 
	d="
M833.988464,522.948914 
	C833.902588,534.396790 833.787781,545.873535 833.785217,557.350342 
	C833.776123,597.613586 833.805725,637.876831 833.895996,678.609314 
	C833.971375,679.078552 834.018494,679.016052 833.575928,678.908081 
	C795.872375,678.783203 758.611511,678.747986 721.350586,678.758728 
	C707.215637,678.762756 693.080627,678.872681 678.945679,678.934387 
	C678.945679,678.934387 679.028503,679.013672 678.869202,678.615234 
	C678.652710,677.387573 678.545532,676.558411 678.545349,675.729187 
	C678.537109,626.255859 678.532837,576.782593 678.561340,527.309265 
	C678.562195,525.837952 678.916321,524.366882 679.105774,522.895691 
	C679.105774,522.895691 679.023926,522.976501 679.433716,523.171265 
	C730.100098,523.389038 780.356689,523.414612 830.613220,523.418030 
	C831.761902,523.418152 832.910645,523.166931 834.059326,523.033020 
	C834.059326,523.033020 834.010986,522.977844 833.988464,522.948914 
z"/>
<path fill="#ED1C24" opacity="1.000000" stroke="none" 
	d="
M522.588013,368.036987 
	C523.101135,394.707397 523.174805,421.485077 523.199158,448.262787 
	C523.221497,472.880737 523.190735,497.498718 523.125122,522.585632 
	C522.085876,523.180664 521.104858,523.417175 520.123779,523.417053 
	C470.030640,523.410217 419.937469,523.383240 369.392639,523.208374 
	C368.830170,522.407288 368.622223,521.756165 368.622375,521.105042 
	C368.635895,470.353485 368.665710,419.601959 368.828857,368.394104 
	C369.953583,368.019196 370.943726,368.171844 371.933899,368.171844 
	C421.998260,368.170868 472.062653,368.156830 522.588013,368.036987 
z"/>
<path fill="#ED1C24" opacity="1.000000" stroke="none" 
	d="
M678.781067,679.382202 
	C693.080627,678.872681 707.215637,678.762756 721.350586,678.758728 
	C758.611511,678.747986 795.872375,678.783203 833.600952,678.877930 
	C833.970947,679.942627 833.787903,680.929504 833.787903,681.916321 
	C833.789307,731.983582 833.806458,782.050781 833.940674,832.575562 
	C832.910645,833.166626 831.761902,833.416931 830.613098,833.416870 
	C780.356567,833.413330 730.100037,833.387756 679.393066,833.211304 
	C678.808167,832.078674 678.556091,831.099731 678.556213,830.120728 
	C678.562744,780.023804 678.590759,729.926880 678.781067,679.382202 
z"/>
<path fill="#ED1C24" opacity="1.000000" stroke="none" 
	d="
M522.597229,678.859680 
	C523.111328,714.529419 523.166626,750.120605 523.201721,785.711731 
	C523.216919,801.179932 523.190674,816.648193 523.125244,832.585327 
	C522.252380,833.178528 521.437683,833.411621 520.622925,833.411499 
	C470.363556,833.405212 420.104187,833.379822 369.392853,833.207275 
	C368.826172,832.241394 368.610962,831.424561 368.611023,830.607666 
	C368.616089,780.352905 368.638794,730.098083 368.801758,679.389038 
	C383.244598,678.872864 397.545563,678.764832 411.846558,678.758423 
	C448.607758,678.741882 485.368988,678.770508 522.597229,678.859680 
z"/>
<path fill="#ED1C24" opacity="1.000000" stroke="none" 
	d="
M833.938721,522.575989 
	C832.910645,523.166931 831.761902,523.418152 830.613220,523.418030 
	C780.356689,523.414612 730.100098,523.389038 679.393250,523.212036 
	C678.812500,522.411987 678.567688,521.765808 678.567932,521.119812 
	C678.583801,470.359955 678.618958,419.600067 678.809387,368.389893 
	C679.790222,368.019745 680.614380,368.170258 681.438538,368.170135 
	C732.014221,368.161835 782.589966,368.141174 833.630127,368.015442 
	C833.986877,369.062073 833.784851,370.214966 833.784851,371.367828 
	C833.784729,421.618195 833.802490,471.868591 833.938721,522.575989 
z"/>
<path fill="#23429B" opacity="1.000000" stroke="none" 
	d="
M687.061951,162.059677 
	C676.777710,170.852219 665.348145,170.526382 652.926270,167.755188 
	C656.783508,145.321167 660.594360,123.156418 664.499817,100.441605 
	C675.054565,101.887703 685.044312,104.115425 692.398438,112.062790 
	C694.816040,114.675438 696.584778,118.674644 696.986877,122.228020 
	C698.601074,136.493729 696.191223,149.995148 687.061951,162.059677 
z"/>
<path fill="#24439B" opacity="1.000000" stroke="none" 
	d="
M448.199707,1041.773926 
	C445.215515,1040.623413 442.599457,1039.607910 439.286560,1038.322021 
	C442.447235,1030.092896 445.554932,1022.001709 449.026337,1012.963562 
	C456.441650,1016.096924 463.812744,1018.572632 470.531128,1022.242981 
	C476.413452,1025.456543 477.938660,1033.995361 474.755341,1039.870728 
	C471.255371,1046.330566 465.718536,1048.236450 458.368469,1045.517456 
	C455.103485,1044.309570 451.834839,1043.111572 448.199707,1041.773926 
z"/>
<path fill="#26459C" opacity="1.000000" stroke="none" 
	d="
M348.404907,217.631790 
	C345.433929,207.094299 342.608398,196.935059 339.782867,186.775818 
	C340.042114,186.627243 340.301361,186.478668 340.560608,186.330078 
	C351.087006,195.677948 361.613434,205.025803 372.783142,214.944962 
	C365.531738,219.365204 358.689026,223.536301 351.419891,227.967361 
	C350.357208,224.279724 349.453796,221.144882 348.404907,217.631790 
z"/>
<path fill="#ED1C24" opacity="1.000000" stroke="none" 
	d="
M678.656250,523.067261 
	C678.916321,524.366882 678.562195,525.837952 678.561340,527.309265 
	C678.532837,576.782593 678.537109,626.255859 678.545349,675.729187 
	C678.545532,676.558411 678.652710,677.387573 678.910889,678.654663 
	C678.123840,678.979126 677.135925,678.766357 676.147949,678.766602 
	C625.373169,678.776550 574.598328,678.804688 523.365112,678.963989 
	C523.003540,678.441284 523.185364,677.785400 523.185181,677.129517 
	C523.169373,626.027649 523.139282,574.925720 523.010254,523.356812 
	C524.379028,523.071655 525.847778,523.411560 527.316711,523.412415 
	C576.618835,523.440002 625.921021,523.436462 675.223145,523.427185 
	C676.217712,523.427002 677.212219,523.304321 678.656250,523.067261 
z"/>
</svg>